<svg width="90" height="90" viewBox="0 0 90 90" fill="none" xmlns="http://www.w3.org/2000/svg">
<path d="M18.75 48.75C18.75 52.1972 19.429 55.6106 20.7482 58.7954C22.0673 61.9802 24.0009 64.874 26.4384 67.3115C28.876 69.7491 31.7698 71.6827 34.9546 73.0018C38.1394 74.321 41.5528 75 45 75C48.4472 75 51.8606 74.321 55.0454 73.0018C58.2302 71.6827 61.124 69.7491 63.5615 67.3115C65.9991 64.874 67.9327 61.9802 69.2518 58.7954C70.571 55.6106 71.25 52.1972 71.25 48.75C71.25 45.3028 70.571 41.8894 69.2518 38.7046C67.9327 35.5198 65.9991 32.626 63.5615 30.1884C61.124 27.7509 58.2302 25.8173 55.0454 24.4982C51.8606 23.179 48.4472 22.5 45 22.5C41.5528 22.5 38.1394 23.179 34.9546 24.4982C31.7698 25.8173 28.876 27.7509 26.4384 30.1884C24.0009 32.626 22.0673 35.5198 20.7482 38.7046C19.429 41.8894 18.75 45.3028 18.75 48.75Z" stroke="white" stroke-width="3" stroke-linecap="round" stroke-linejoin="round"/>
<path d="M45 37.5V48.75H52.5" stroke="white" stroke-width="3" stroke-linecap="round" stroke-linejoin="round"/>
<path d="M26.25 15L15.9375 22.5" stroke="white" stroke-width="3" stroke-linecap="round" stroke-linejoin="round"/>
<path d="M63.75 15L74.0625 22.5" stroke="white" stroke-width="3" stroke-linecap="round" stroke-linejoin="round"/>
</svg>
