<svg width="90" height="90" viewBox="0 0 90 90" fill="none" xmlns="http://www.w3.org/2000/svg">
<path d="M11.25 45C11.25 49.4321 12.123 53.8208 13.8191 57.9156C15.5152 62.0103 18.0012 65.7309 21.1351 68.8649C24.2691 71.9988 27.9897 74.4848 32.0844 76.1809C36.1792 77.877 40.5679 78.75 45 78.75C49.4321 78.75 53.8208 77.877 57.9156 76.1809C62.0103 74.4848 65.7309 71.9988 68.8649 68.8649C71.9988 65.7309 74.4848 62.0103 76.1809 57.9156C77.877 53.8208 78.75 49.4321 78.75 45C78.75 40.5679 77.877 36.1792 76.1809 32.0844C74.4848 27.9897 71.9988 24.2691 68.8649 21.1351C65.7309 18.0012 62.0103 15.5152 57.9156 13.8191C53.8208 12.123 49.4321 11.25 45 11.25C40.5679 11.25 36.1792 12.123 32.0844 13.8191C27.9897 15.5152 24.2691 18.0012 21.1351 21.1351C18.0012 24.2691 15.5152 27.9897 13.8191 32.0844C12.123 36.1792 11.25 40.5679 11.25 45Z" stroke="white" stroke-width="3" stroke-linecap="round" stroke-linejoin="round"/>
<path d="M33.75 37.5C33.75 40.4837 34.9353 43.3452 37.045 45.455C39.1548 47.5647 42.0163 48.75 45 48.75C47.9837 48.75 50.8452 47.5647 52.955 45.455C55.0647 43.3452 56.25 40.4837 56.25 37.5C56.25 34.5163 55.0647 31.6548 52.955 29.545C50.8452 27.4353 47.9837 26.25 45 26.25C42.0163 26.25 39.1548 27.4353 37.045 29.545C34.9353 31.6548 33.75 34.5163 33.75 37.5Z" stroke="white" stroke-width="3" stroke-linecap="round" stroke-linejoin="round"/>
<path d="M23.1299 70.6838C24.058 67.5946 25.9573 64.8869 28.5458 62.9624C31.1343 61.0379 34.2743 59.9991 37.4999 60H52.4999C55.7296 59.9989 58.8734 61.0402 61.4638 62.9692C64.0542 64.8981 65.9529 67.6117 66.8774 70.7062" stroke="white" stroke-width="3" stroke-linecap="round" stroke-linejoin="round"/>
</svg>
